<?xml version="1.0" encoding="UTF-8"?>
<svg id="Layer_1" data-name="Layer 1" xmlns="http://www.w3.org/2000/svg" viewBox="0 0 612 612">
  <defs>
    <style>
      .cls-1 {
        fill: #775da7;
      }

      .cls-2 {
        fill: #f3784c;
      }

      .cls-3 {
        fill: #f2eb51;
      }

      .cls-4 {
        fill: #383838;
      }

      .cls-5 {
        fill: #00a695;
      }
    </style>
  </defs>
  <g>
    <path class="cls-4" d="m185.15,291.69c13.28,0,22.1,8.83,22.1,22.02s-8.83,22.19-22.1,22.19-22.19-8.91-22.19-22.19,8.91-22.02,22.19-22.02Zm-.09,34.78c7.2,0,11.91-4.71,11.91-12.68s-4.71-12.68-11.91-12.68-11.82,4.71-11.82,12.68,4.71,12.68,11.82,12.68Z"/>
    <path class="cls-4" d="m232.43,291.52v9.42c-6.85,0-10.97,3.34-10.97,10.2v23.99h-10.28v-23.99c0-13.02,8.22-19.62,21.25-19.62Z"/>
    <path class="cls-4" d="m235.94,275.16h10.28v43.44l19.36-26.3h12.25l-15.85,21.42,15.51,21.42h-12.17l-9.42-13.11-9.68,13.11h-10.28v-59.97Z"/>
    <path class="cls-4" d="m303.36,336.07c-10.71,0-18.33-4.28-22.96-8.74l6.77-7.37c4.63,3.94,9.68,6.25,16.11,6.25,8.31,0,10.62-3.94,10.62-7.71,0-14.31-33.33-5.74-33.33-27.07,0-10.02,7.28-17.22,20.82-17.22,9.25,0,16.88,3.43,22.27,8.05l-6.25,7.8c-5.4-4.37-10.62-6-15.94-6-7.2,0-10.19,2.91-10.19,6.51,0,12.08,33.33,4.11,33.33,27.16,0,10.37-6.68,18.33-21.25,18.33Z"/>
    <path class="cls-4" d="m323.32,292.29h10.71l10.28,29.64,10.28-29.64h10.71l-15.16,42.84c-3.51,10.02-6,21.16-20.39,21.16v-9.42c5.74,0,10.37-7.11,8.31-12.85l-14.74-41.72Z"/>
    <path class="cls-4" d="m404.71,309.6v25.53h-10.28v-25.27c0-6.08-4.46-8.83-9.42-8.83s-9.42,2.74-9.42,8.83v25.27h-10.28v-25.53c0-7.45,5.57-18.08,19.7-18.08s19.7,10.62,19.7,18.08Z"/>
    <path class="cls-4" d="m440.43,321.85h11.22c-2.83,8.65-10.45,14.05-20.82,14.05-13.28,0-22.19-8.91-22.19-22.19s8.91-22.02,22.19-22.02,22.1,8.83,22.1,22.02c0,1.2-.09,2.31-.17,3.43h-33.5c1.11,5.91,5.4,9.34,11.48,9.34,4.28,0,7.62-1.63,9.68-4.63Zm1.11-14.14c-1.8-4.2-5.65-6.6-10.79-6.6s-8.91,2.4-10.71,6.6h21.5Z"/>
    <path class="cls-4" d="m478.12,291.52v9.42c-6.85,0-10.97,3.34-10.97,10.2v23.99h-10.28v-23.99c0-13.02,8.22-19.62,21.25-19.62Z"/>
    <path class="cls-4" d="m522.92,333.42c0,11.31-8.48,19.36-21.42,19.36-8.65,0-15.59-3.68-20.05-9.34l8.4-5.91c2.31,2.83,5.83,5.83,11.74,5.83,7.11,0,11.05-4.2,11.05-9.94v-2.48c-2.06,2.66-6.42,4.88-12.68,4.88-12.42,0-21.33-8.91-21.33-22.19s8.91-22.02,22.1-22.02,22.19,8.91,22.19,22.19v19.62Zm-22.1-32.38c-7.2,0-11.91,4.71-11.91,12.68s4.71,12.68,11.91,12.68,11.82-4.71,11.82-12.68-4.71-12.68-11.82-12.68Z"/>
    <path class="cls-4" d="m521.38,292.29h10.71l10.28,29.64,10.28-29.64h10.71l-15.16,42.84c-3.51,10.02-6,21.16-20.39,21.16v-9.42c5.74,0,10.37-7.11,8.31-12.85l-14.74-41.72Z"/>
  </g>
  <g>
    <path class="cls-5" d="m68.22,263.43c-1.17,5.03-2.75,12.95-3.67,20.68-.16,1.59-.31,3.32-.44,5.14-1.56,1.98-3.41,2.79-5.7,2.85-4.39,0-7.29-2.3-9.22-6.38.2-2.89.47-5.43.77-7.3.04-.24.08-.47.15-.69.9-6.81,2.12-13.76,3.2-17.65,1.94-7.52,17-4.14,14.91,3.36Z"/>
    <path class="cls-3" d="m66.55,335.64c-13-2.72-17.2-14.93-17.77-27.21-.04-.8-.06-1.59-.07-2.39-.17-5.53-.02-12.64.35-18.64h0c.02-.26.04-.52.06-.78.02-.31.04-.62.07-.92,1.93,4.08,4.83,6.38,9.22,6.38,2.29-.06,4.14-.87,5.7-2.85-.35,4.73-.59,10.06-.51,15.08.06,1.72.14,3.36.25,4.92.44,6.3,1.42,11.11,3.75,13.6-1.42,4.1-1.84,8.71-1.05,12.8Z"/>
    <path class="cls-2" d="m98.95,277.11c-1.42,4.1-1.84,8.71-1.05,12.8.03.17.07.34.1.51-1.61,4.69-2.07,11.59-2.72,17.45-.21,2.19-.5,4.22-.85,6.11-3.26,17.52-12.16,22.11-21.75,22.22-2.24.03-4.28-.17-6.14-.56-.79-4.1-.37-8.7,1.05-12.8,1.15,1.23,2.63,1.89,4.54,1.89,3.73-.09,5.68-3.22,7.36-13.44.31-1.88.61-4.01.91-6.4.13-1.2.27-2.44.44-3.69,1.22-9.5,3.57-19.98,11.39-24.98,2.28-1.46,5.02-2.45,8.34-2.82-.63,1.16-1.18,2.41-1.63,3.7Z"/>
    <path class="cls-5" d="m133.04,325.23c-1.19,3.45-1.68,7.26-1.33,10.81-7.82-.86-14.79-5.4-18.2-18.48-.74-2.82-1.31-6.03-1.68-9.69-.18-1.89-.36-3.89-.58-5.89-.91-8.53-2.45-17.04-7.7-17.04-2.72,0-4.42,2.19-5.55,5.48-.04-.17-.07-.34-.1-.51-.79-4.1-.37-8.7,1.05-12.8.45-1.29,1-2.54,1.63-3.7.94-.1,1.93-.16,2.98-.16,18.88,0,21.63,17.89,23.29,31.65,0,.08.02.17.03.25.83,7.04,1.69,11.77,2.83,14.81.96,2.57,2.12,3.94,3.62,4.48-.1.26-.2.52-.29.78Z"/>
    <path class="cls-1" d="m158.54,305.72c0,.11,0,.22,0,.33,0,1.08-.05,2.17-.13,3.25-.01.19-.03.39-.05.59-.17,2.02-.45,4.03-.87,5.99-1.15,5.4-3.34,10.38-6.87,14.07-3.76,3.92-9.03,6.36-16.2,6.27-.91,0-1.82-.06-2.71-.16-.35-3.56.14-7.37,1.33-10.81.09-.26.19-.52.29-.78.54.2,1.14.29,1.78.29,2.69,0,4.53-1.32,5.78-3.68.93-1.76,1.53-4.1,1.91-6.91.25-1.81.4-3.82.48-5.99,0-.13,0-.26.01-.4.04-1.1.07-2.25.08-3.43.01-.88.02-1.76.03-2.64.52.36,1.07.69,1.63,1,.92.5,1.9.95,2.92,1.34.26.1.52.2.78.29,3.12,1.08,6.54,1.58,9.8,1.41Z"/>
    <path class="cls-3" d="m158.54,305.72c-3.26.17-6.68-.33-9.8-1.41-.26-.09-.52-.19-.78-.29-1.01-.39-1.99-.84-2.92-1.34-.57-.31-1.11-.64-1.63-1,.03-5.44-.1-10.96-.48-15.88-.44-4.58-1.18-9.37-1.98-13.65-.07-.35-.13-.69-.19-1.03-.58-3.07-1.17-5.85-1.68-8.05-.62-2.25.34-4.11,2.03-5.41.78-.59,1.71-1.07,2.7-1.39,3.85-1.28,8.72-.47,9.75,3.54.87,3.13,1.84,8.32,2.64,13.77.16,1.1.32,2.21.46,3.32.08.26.16.53.21.82.5,3.08.96,8.18,1.27,13.61.28,4.94.44,10.17.39,14.39Z"/>
  </g>
</svg>