<svg width="193" height="38" viewBox="0 0 193 38" fill="none" xmlns="http://www.w3.org/2000/svg">
<path d="M51.1859 13.4902C56.1654 13.4902 59.4725 16.8011 59.4725 21.7469C59.4725 26.6926 56.1616 30.0673 51.1859 30.0673C46.2101 30.0673 42.8655 26.7264 42.8655 21.7469C42.8655 16.7674 46.2064 13.4902 51.1859 13.4902ZM51.1521 26.5314C53.8519 26.5314 55.6179 24.7653 55.6179 21.7769C55.6179 18.7884 53.8519 17.0224 51.1521 17.0224C48.4524 17.0224 46.7201 18.7884 46.7201 21.7769C46.7201 24.7653 48.4862 26.5314 51.1521 26.5314Z" fill="#383838"/>
<path d="M68.914 13.4268V16.9589C66.3456 16.9589 64.8007 18.2113 64.8007 20.7835V29.7788H60.9461V20.7835C60.9461 15.9015 64.0283 13.4268 68.914 13.4268Z" fill="#383838"/>
<path d="M70.2302 7.29199H74.0848V23.5803L81.344 13.7188H85.9373L79.9942 21.7505L85.8098 29.7822H81.2465L77.7144 24.8664L74.0848 29.7822H70.2302V7.29575V7.29199Z" fill="#383838"/>
<path d="M95.5101 30.1316C91.4942 30.1316 88.637 28.5268 86.901 26.8545L89.4395 24.091C91.1755 25.5684 93.0691 26.4345 95.4801 26.4345C98.596 26.4345 99.4622 24.9572 99.4622 23.5436C99.4622 18.1779 86.9647 21.3913 86.9647 13.3934C86.9647 9.63625 89.6944 6.93652 94.7714 6.93652C98.2398 6.93652 101.101 8.22265 103.122 9.95497L100.778 12.8797C98.7535 11.2411 96.7962 10.6299 94.8014 10.6299C92.1017 10.6299 90.9805 11.721 90.9805 13.0709C90.9805 17.6004 103.478 14.612 103.478 23.2548C103.478 27.1432 100.973 30.1279 95.5101 30.1279V30.1316Z" fill="#383838"/>
<path d="M102.994 13.7148H107.01L110.865 24.8287L114.719 13.7148H118.735L113.051 29.7782C111.735 33.5353 110.801 37.7124 105.405 37.7124V34.1802C107.558 34.1802 109.294 31.5143 108.521 29.362L102.994 13.7186V13.7148Z" fill="#383838"/>
<path d="M133.512 20.2061V29.7788H129.658V20.3035C129.658 18.0238 127.985 16.9926 126.126 16.9926C124.266 16.9926 122.594 18.02 122.594 20.3035V29.7788H118.739V20.2061C118.739 17.4126 120.827 13.4268 126.126 13.4268C131.424 13.4268 133.512 17.4089 133.512 20.2061Z" fill="#383838"/>
<path d="M146.906 24.7991H151.113C150.052 28.0425 147.195 30.0673 143.306 30.0673C138.327 30.0673 134.986 26.7264 134.986 21.7469C134.986 16.7674 138.327 13.4902 143.306 13.4902C148.286 13.4902 151.593 16.8011 151.593 21.7469C151.593 22.1968 151.559 22.613 151.529 23.033H138.968C139.384 25.249 140.993 26.5351 143.273 26.5351C144.877 26.5351 146.13 25.924 146.902 24.7991H146.906ZM147.322 19.4971C146.647 17.9223 145.204 17.0224 143.276 17.0224C141.349 17.0224 139.935 17.9223 139.261 19.4971H147.322Z" fill="#383838"/>
<path d="M161.038 13.4268V16.9589C158.47 16.9589 156.925 18.2113 156.925 20.7835V29.7788H153.07V20.7835C153.07 15.9015 156.153 13.4268 161.038 13.4268Z" fill="#383838"/>
<path d="M177.837 29.1381C177.837 33.3789 174.657 36.3973 169.805 36.3973C166.561 36.3973 163.959 35.0175 162.287 32.8952L165.437 30.6792C166.303 31.7403 167.623 32.8652 169.839 32.8652C172.505 32.8652 173.982 31.2904 173.982 29.1381V28.2082C173.21 29.2056 171.575 30.038 169.227 30.038C164.57 30.038 161.23 26.6971 161.23 21.7176C161.23 16.7381 164.57 13.4609 169.516 13.4609C174.462 13.4609 177.837 16.8018 177.837 21.7813V29.1381ZM169.55 16.9968C166.85 16.9968 165.084 18.7629 165.084 21.7513C165.084 24.7398 166.85 26.5058 169.55 26.5058C172.25 26.5058 173.982 24.7398 173.982 21.7513C173.982 18.7629 172.216 16.9968 169.55 16.9968Z" fill="#383838"/>
<path d="M177.259 13.7148H181.275L185.13 24.8287L188.984 13.7148H193L187.316 29.7782C185.999 33.5353 185.066 37.7124 179.67 37.7124V34.1802C181.822 34.1802 183.558 31.5143 182.786 29.362L177.259 13.7186V13.7148Z" fill="#383838"/>
<path d="M7.34165 2.89387C6.90294 4.77992 6.3105 7.74961 5.96554 10.6481C5.90554 11.2443 5.8493 11.8929 5.80055 12.5754C5.21561 13.3178 4.52194 13.6215 3.66327 13.644C2.01719 13.644 0.929805 12.7816 0.20613 11.2518C0.281122 10.1681 0.382362 9.21572 0.49485 8.51454C0.509849 8.42455 0.524848 8.33831 0.551095 8.25582C0.88856 5.70233 1.34601 3.09634 1.75097 1.63774C2.4784 -1.18197 8.12531 0.08541 7.34165 2.89762V2.89387Z" fill="#00A695"/>
<path d="M6.71546 29.9707C1.84096 28.9508 0.266123 24.3725 0.0523953 19.768C0.0373968 19.468 0.0298977 19.1718 0.0261481 18.8718C-0.0375953 16.7983 0.0186498 14.1323 0.157385 11.8825C0.164885 11.7851 0.172383 11.6876 0.179882 11.5901C0.187381 11.4738 0.194881 11.3576 0.206129 11.2451C0.929805 12.775 2.01719 13.6374 3.66327 13.6374C4.52193 13.6149 5.21561 13.3112 5.80055 12.5687C5.66932 14.3423 5.57933 16.3408 5.60932 18.2231C5.63182 18.8681 5.66182 19.483 5.70306 20.068C5.86805 22.4302 6.23551 24.2338 7.10917 25.1674C6.57672 26.7048 6.41924 28.4333 6.71546 29.9669V29.9707Z" fill="#F2EB51"/>
<path d="M18.8642 8.02392C18.3318 9.56126 18.1743 11.2898 18.4705 12.8234C18.4817 12.8872 18.4967 12.9509 18.508 13.0147C17.9043 14.7732 17.7318 17.3605 17.4881 19.5577C17.4094 20.3789 17.3006 21.1401 17.1694 21.8488C15.947 28.4181 12.6099 30.1391 9.01397 30.1804C8.17406 30.1916 7.40914 30.1166 6.71171 29.9704C6.41549 28.4331 6.57297 26.7082 7.10542 25.1709C7.53662 25.6321 8.09157 25.8796 8.80774 25.8796C10.2063 25.8458 10.9375 24.6722 11.5675 20.8401C11.6837 20.1352 11.7962 19.3365 11.9087 18.4404C11.9574 17.9904 12.0099 17.5254 12.0737 17.0567C12.5311 13.4946 13.4123 9.56501 16.3445 7.69021C17.1994 7.14276 18.2268 6.77155 19.4716 6.63281C19.2354 7.06777 19.0292 7.53647 18.8605 8.02017L18.8642 8.02392Z" fill="#F3784C"/>
<path d="M31.6466 26.0667C31.2004 27.3603 31.0167 28.7889 31.1479 30.12C28.2157 29.7975 25.6023 28.0952 24.3236 23.1907C24.0462 22.1333 23.8324 20.9297 23.6937 19.5573C23.6262 18.8487 23.5587 18.0987 23.4762 17.3488C23.135 14.1504 22.5576 10.9595 20.589 10.9595C19.5691 10.9595 18.9317 11.7806 18.508 13.0143C18.493 12.9505 18.4817 12.8868 18.4705 12.823C18.1743 11.2857 18.3318 9.56086 18.8642 8.02352C19.0329 7.53982 19.2392 7.07112 19.4754 6.63617C19.8279 6.59867 20.1991 6.57617 20.5928 6.57617C27.672 6.57617 28.7032 13.2842 29.3256 18.4437C29.3256 18.4737 29.3331 18.5074 29.3369 18.5374C29.6481 21.1772 29.9706 22.9507 30.398 24.0906C30.758 25.0543 31.1929 25.568 31.7554 25.7704C31.7179 25.8679 31.6804 25.9654 31.6466 26.0629V26.0667Z" fill="#00A695"/>
<path d="M41.2082 18.7516C41.2082 18.7929 41.2082 18.8341 41.2082 18.8754C41.2082 19.2803 41.1894 19.689 41.1594 20.094C41.1557 20.1652 41.1482 20.2402 41.1407 20.3152C41.0769 21.0727 40.9719 21.8263 40.8144 22.5613C40.3832 24.586 39.5621 26.4534 38.2385 27.837C36.8286 29.3068 34.8526 30.2217 32.1641 30.188C31.8229 30.188 31.4817 30.1655 31.1479 30.128C31.0167 28.7931 31.2004 27.3645 31.6466 26.0746C31.6804 25.9771 31.7179 25.8797 31.7554 25.7822C31.9579 25.8572 32.1828 25.8909 32.4228 25.8909C33.4315 25.8909 34.1214 25.396 34.5901 24.511C34.9388 23.8511 35.1638 22.9737 35.3063 21.9201C35.4 21.2414 35.4562 20.4877 35.4862 19.674C35.4862 19.6253 35.4862 19.5766 35.49 19.5241C35.505 19.1116 35.5162 18.6804 35.52 18.238C35.5237 17.908 35.5275 17.578 35.5312 17.248C35.7262 17.383 35.9325 17.5068 36.1424 17.623C36.4874 17.8105 36.8549 17.9792 37.2373 18.1255C37.3348 18.163 37.4323 18.2005 37.5298 18.2342C38.6997 18.6392 39.982 18.8266 41.2044 18.7629L41.2082 18.7516Z" fill="#775DA7"/>
<path d="M41.2082 18.7516C39.9858 18.8153 38.7034 18.6279 37.5335 18.2229C37.436 18.1892 37.3386 18.1517 37.2411 18.1142C36.8624 17.9679 36.4949 17.7992 36.1462 17.6117C35.9324 17.4955 35.73 17.3717 35.535 17.2368C35.5462 15.197 35.4975 13.1272 35.355 11.2824C35.19 9.56505 34.9126 7.76898 34.6126 6.16415C34.5863 6.03291 34.5638 5.90543 34.5413 5.77794C34.3239 4.62681 34.1026 3.58442 33.9114 2.75951C33.6789 1.91584 34.0389 1.21841 34.6726 0.730964C34.9651 0.509736 35.3138 0.32975 35.685 0.209762C37.1286 -0.270189 38.9546 0.0335331 39.3408 1.53713C39.6671 2.71076 40.0308 4.6568 40.3307 6.70034C40.3907 7.1128 40.4507 7.52901 40.5032 7.94522C40.5332 8.04271 40.5632 8.14395 40.582 8.25269C40.7695 9.40757 40.9419 11.3199 41.0582 13.3559C41.1632 15.2082 41.2232 17.1693 41.2044 18.7516H41.2082Z" fill="#F2EB51"/>
</svg>
