<?xml version="1.0" encoding="UTF-8"?>
<svg id="Layer_1" data-name="Layer 1" xmlns="http://www.w3.org/2000/svg" viewBox="0 0 612 612">
  <defs>
    <style>
      .cls-1 {
        fill: #775da7;
      }

      .cls-2 {
        fill: #f3784c;
      }

      .cls-3 {
        fill: #f2eb51;
      }

      .cls-4 {
        fill: #00a695;
      }
    </style>
  </defs>
  <path class="cls-4" d="m199.01,207.62c-3.52,15.22-8.32,39.15-11.1,62.52-.47,4.81-.93,10.05-1.33,15.54-4.72,5.98-10.32,8.45-17.25,8.62-13.28,0-22.06-6.96-27.88-19.31.61-8.73,1.41-16.42,2.33-22.07.11-.73.26-1.43.44-2.1,2.71-20.6,6.42-41.62,9.69-53.36,5.88-22.73,51.4-12.53,45.1,10.16Z"/>
  <path class="cls-3" d="m193.96,426.01c-39.31-8.23-52.02-45.16-53.74-82.29-.11-2.41-.17-4.82-.2-7.22-.51-16.74-.06-38.23,1.07-56.37h-.03c.06-.78.11-1.57.19-2.35.06-.94.13-1.87.2-2.78,5.82,12.34,14.6,19.31,27.88,19.31,6.93-.17,12.53-2.64,17.25-8.62-1.06,14.31-1.8,30.42-1.56,45.62.17,5.21.41,10.17.76,14.87,1.34,19.06,4.28,33.6,11.34,41.14-4.28,12.4-5.56,26.33-3.17,38.71Z"/>
  <path class="cls-2" d="m291.94,249c-4.28,12.4-5.56,26.33-3.17,38.71.1.53.2,1.04.31,1.56-4.87,14.17-6.25,35.04-8.22,52.78-.64,6.63-1.51,12.77-2.57,18.46-9.86,52.99-36.78,66.88-65.76,67.2-6.78.09-12.96-.51-18.58-1.7-2.4-12.39-1.11-26.31,3.17-38.71,3.47,3.71,7.95,5.72,13.74,5.72,11.27-.29,17.17-9.73,22.24-40.64.93-5.69,1.84-12.11,2.75-19.35.4-3.64.83-7.38,1.33-11.16,3.7-28.74,10.8-60.43,34.46-75.55,6.89-4.41,15.18-7.41,25.21-8.52-1.91,3.51-3.57,7.28-4.92,11.19Z"/>
  <path class="cls-4" d="m395.03,394.52c-3.6,10.43-5.08,21.94-4.02,32.7-23.64-2.61-44.72-16.32-55.03-55.89-2.23-8.52-3.95-18.24-5.09-29.29-.56-5.72-1.1-11.77-1.74-17.82-2.75-25.8-7.41-51.52-23.27-51.52-8.23,0-13.36,6.63-16.78,16.57-.11-.51-.21-1.03-.31-1.56-2.4-12.39-1.11-26.31,3.17-38.71,1.36-3.91,3.01-7.68,4.92-11.19,2.85-.31,5.85-.49,9-.49,57.09,0,65.42,54.09,70.43,95.71.03.26.06.51.1.77,2.5,21.3,5.11,35.6,8.55,44.79,2.9,7.76,6.41,11.9,10.96,13.56-.3.78-.6,1.57-.87,2.37Z"/>
  <path class="cls-1" d="m472.15,335.51c0,.34-.01.67-.01,1-.03,3.27-.16,6.55-.39,9.82-.04.58-.09,1.18-.14,1.77-.5,6.12-1.36,12.2-2.63,18.12-3.48,16.32-10.09,31.39-20.78,42.53-11.36,11.84-27.3,19.23-49,18.96-2.75-.03-5.49-.19-8.2-.49-1.06-10.76.43-22.27,4.02-32.7.27-.8.57-1.58.87-2.37,1.64.6,3.44.87,5.39.87,8.15,0,13.71-3.98,17.48-11.12,2.81-5.32,4.64-12.41,5.78-20.9.74-5.48,1.2-11.56,1.46-18.12.01-.4.03-.8.04-1.2.11-3.34.2-6.81.24-10.39.04-2.65.07-5.32.09-7.99,1.58,1.08,3.22,2.08,4.94,3.02,2.8,1.53,5.75,2.88,8.82,4.05.78.3,1.57.6,2.37.87,9.45,3.25,19.79,4.78,29.65,4.25Z"/>
  <path class="cls-3" d="m472.15,335.51c-9.86.53-20.2-1-29.65-4.25-.8-.27-1.58-.57-2.37-.87-3.07-1.17-6.02-2.53-8.82-4.05-1.71-.94-3.35-1.94-4.94-3.02.1-16.47-.31-33.13-1.44-48.03-1.34-13.85-3.58-28.32-5.98-41.29-.2-1.06-.39-2.08-.59-3.11-1.74-9.27-3.54-17.68-5.08-24.34-1.88-6.81,1.03-12.44,6.14-16.35,2.35-1.8,5.17-3.22,8.18-4.21,11.64-3.88,26.37-1.41,29.49,10.7,2.63,9.47,5.55,25.16,7.99,41.65.49,3.32.96,6.69,1.4,10.05.26.8.48,1.61.64,2.47,1.51,9.32,2.91,24.74,3.84,41.16.86,14.95,1.34,30.76,1.18,43.5Z"/>
</svg>