<svg width="95" height="70" viewBox="0 0 95 70" fill="none" xmlns="http://www.w3.org/2000/svg">
<path d="M16.9211 6.66694C15.9149 11.0173 14.5429 17.8574 13.7483 24.5374C13.6139 25.9122 13.4825 27.41 13.3681 28.9792C12.019 30.6885 10.4183 31.3945 8.43747 31.4431C4.64158 31.4431 2.13194 29.4537 0.468384 25.9237C0.642743 23.4283 0.871412 21.2302 1.13438 19.6153C1.16582 19.4066 1.2087 19.2065 1.26015 19.015C2.03476 13.1268 3.09521 7.11856 4.02989 3.76285C5.7106 -2.73418 18.7218 0.181334 16.9211 6.66694Z" fill="#00A695"/>
<path d="M15.4776 69.0903C4.24145 66.7378 0.60848 56.1819 0.116844 45.5689C0.0854019 44.88 0.0682526 44.1911 0.0596776 43.5051C-0.0860984 38.7203 0.0425252 32.5777 0.365519 27.3926H0.356944C0.374094 27.1697 0.388387 26.9438 0.411254 26.7209C0.428404 26.4522 0.448411 26.1864 0.46842 25.9263C2.13198 29.4535 4.64162 31.4457 8.43751 31.4457C10.4183 31.3972 12.019 30.6911 13.3682 28.9818C13.0652 33.0722 12.8537 37.677 12.9223 42.0217C12.9709 43.5109 13.0395 44.9286 13.1395 46.272C13.5225 51.72 14.3629 55.8761 16.3809 58.0313C15.1575 61.5756 14.7916 65.5573 15.4748 69.096L15.4776 69.0903Z" fill="#F2EB51"/>
<path d="M43.4838 18.4948C42.2604 22.0392 41.8945 26.0209 42.5777 29.5595C42.6063 29.711 42.6348 29.8568 42.6663 30.0054C41.2743 34.0557 40.8798 40.0211 40.3167 45.0918C40.1338 46.9869 39.8851 48.7419 39.5821 50.3683C36.7638 65.5147 29.0691 69.485 20.7856 69.5764C18.8476 69.6021 17.0812 69.4307 15.4748 69.0905C14.7888 65.549 15.1575 61.5702 16.3809 58.0258C17.3727 59.0863 18.6533 59.6608 20.3083 59.6608C23.5296 59.5779 25.2161 56.8796 26.6652 48.0445C26.9311 46.4181 27.1912 44.583 27.4513 42.5135C27.5656 41.4731 27.6885 40.4041 27.8314 39.3236C28.889 31.1087 30.9185 22.0506 37.6813 17.7288C39.6507 16.4682 42.0203 15.6107 44.8872 15.2935C44.3413 16.2967 43.8668 17.3743 43.4809 18.492L43.4838 18.4948Z" fill="#F3784C"/>
<path d="M72.9506 60.0894C71.9216 63.0707 71.4985 66.3606 71.8015 69.4362C65.0444 68.6902 59.019 64.7714 56.072 53.4609C55.4346 51.0256 54.943 48.2473 54.6171 45.0888C54.457 43.4538 54.3027 41.7245 54.1197 39.9952C53.3337 32.6207 52.0017 25.269 47.4684 25.269C45.1159 25.269 43.6496 27.1641 42.672 30.0053C42.6406 29.8595 42.612 29.7109 42.5834 29.5594C41.8974 26.0179 42.2662 22.039 43.4895 18.4947C43.8783 17.3771 44.3499 16.2995 44.8958 15.2962C45.7105 15.2076 46.568 15.1561 47.4684 15.1561C63.7867 15.1561 66.1677 30.617 67.5997 42.5134C67.6083 42.5877 67.6169 42.6592 67.6283 42.7335C68.3429 48.8218 69.0889 52.9092 70.0722 55.5361C70.9011 57.7542 71.9044 58.9375 73.205 59.412C73.1192 59.6349 73.0335 59.8608 72.9563 60.0894H72.9506Z" fill="#00A695"/>
<path d="M94.9942 43.2222C94.9942 43.3194 94.9913 43.4137 94.9913 43.5081C94.9827 44.4427 94.9456 45.3803 94.8798 46.315C94.8684 46.4807 94.8541 46.6523 94.8398 46.8209C94.6969 48.5702 94.4511 50.3081 94.0881 52.0002C93.0934 56.6651 91.204 60.9726 88.1484 64.1568C84.9013 67.5411 80.3451 69.6534 74.1425 69.5762C73.3565 69.5677 72.5733 69.5219 71.7987 69.4362C71.4957 66.3606 71.9216 63.0706 72.9477 60.0894C73.0249 59.8607 73.1106 59.6377 73.1964 59.4119C73.6652 59.5834 74.1797 59.6606 74.737 59.6606C77.0666 59.6606 78.6558 58.523 79.7334 56.4821C80.5366 54.9615 81.0597 52.9349 81.3856 50.5082C81.5971 48.9418 81.7286 47.2039 81.8029 45.3288C81.8057 45.2145 81.8115 45.1002 81.8143 44.9858C81.8458 44.0311 81.8715 43.0393 81.8829 42.016C81.8944 41.2585 81.9029 40.4954 81.9086 39.7322C82.3603 40.0409 82.829 40.3267 83.3207 40.5954C84.121 41.0327 84.9642 41.4186 85.8417 41.753C86.0647 41.8388 86.2905 41.9245 86.5192 42.0017C89.2203 42.9307 92.1758 43.368 94.9942 43.2165V43.2222Z" fill="#775DA7"/>
<path d="M94.9942 43.2223C92.1759 43.3738 89.2203 42.9364 86.5192 42.0075C86.2905 41.9303 86.0676 41.8445 85.8418 41.7588C84.9642 41.4244 84.121 41.0356 83.3207 40.6011C82.8319 40.3325 82.3631 40.0466 81.9087 39.7379C81.9372 35.0302 81.8201 30.2682 81.4971 26.0093C81.114 22.0504 80.4738 17.9144 79.7878 14.2071C79.7306 13.9041 79.6763 13.6126 79.6191 13.3182C79.1218 10.6685 78.6073 8.26461 78.1671 6.36095C77.6297 4.41441 78.4615 2.80516 79.9221 1.68754C80.5938 1.17304 81.3999 0.767155 82.2602 0.484179C85.5874 -0.624862 89.7977 0.0811503 90.6895 3.54261C91.4413 6.24947 92.2759 10.7342 92.9733 15.4476C93.1134 16.3966 93.2478 17.3599 93.3735 18.3203C93.4478 18.549 93.5107 18.7805 93.5565 19.0263C93.9881 21.6903 94.3882 26.0979 94.6541 30.7913C94.8999 35.0645 95.0371 39.5836 94.9914 43.2251L94.9942 43.2223Z" fill="#F2EB51"/>
</svg>
